<svg width="16" height="92" viewBox="0 0 16 92" fill="none" xmlns="http://www.w3.org/2000/svg">
<path d="M7.29289 91.7071C7.68342 92.0976 8.31658 92.0976 8.70711 91.7071L15.0711 85.3431C15.4616 84.9526 15.4616 84.3195 15.0711 83.9289C14.6805 83.5384 14.0474 83.5384 13.6569 83.9289L8 89.5858L2.34315 83.9289C1.95262 83.5384 1.31946 83.5384 0.928932 83.9289C0.538408 84.3195 0.538408 84.9526 0.928932 85.3431L7.29289 91.7071ZM9 1C9 0.447716 8.55228 0 8 0C7.44772 0 7 0.447716 7 1H9ZM9 91L9 1H7L7 91H9Z" fill="white"/>
</svg>
