<svg width="24" height="28" viewBox="0 0 24 28" fill="none" xmlns="http://www.w3.org/2000/svg">
<mask id="path-1-inside-1" fill="white">
<path fill-rule="evenodd" clip-rule="evenodd" d="M18.3509 6.74071C18.3509 10.4635 15.3159 13.4814 11.5721 13.4814C7.82837 13.4814 4.79341 10.4635 4.79341 6.74071C4.79341 3.01793 7.82837 0 11.5721 0C15.3159 0 18.3509 3.01793 18.3509 6.74071ZM16.7358 6.74071C16.7358 9.57652 14.424 11.8754 11.5721 11.8754C8.72033 11.8754 6.40847 9.57654 6.40847 6.74071C6.40847 3.90489 8.72032 1.606 11.5721 1.606C14.424 1.606 16.7358 3.90488 16.7358 6.74071Z"/>
<path fill-rule="evenodd" clip-rule="evenodd" d="M19.3485 27.9128C19.1798 27.9101 18.9614 28 18.7928 28H4.45162C4.43254 28 4.41707 27.9845 4.41706 27.9655C4.41705 27.9469 4.40223 27.9317 4.38369 27.9308C3.62705 27.8969 3.04527 27.7051 2.44138 27.4071C2.31644 27.3455 2.19997 27.2682 2.09135 27.1809L1.21614 26.4779C1.02896 26.3071 0.822679 25.9781 0.668529 25.7322C0.628234 25.668 0.591501 25.6094 0.559603 25.5608C0.361884 25.2596 0.250575 24.8962 0.169551 24.5408C0.157643 24.4885 0.146409 24.4202 0.134765 24.3493C0.120826 24.2645 0.106301 24.1761 0.0893325 24.1074C0.0103766 23.7882 -0.0366559 22.5304 0.0362431 22.1795C0.065665 22.0379 0.0634699 21.8791 0.0612555 21.7189C0.0589365 21.5512 0.0565964 21.3819 0.0905278 21.2293C0.119559 21.0987 0.131523 20.9541 0.143686 20.8071C0.157203 20.6438 0.170965 20.4774 0.208673 20.3242C0.221037 20.274 0.224161 20.2325 0.227453 20.1889C0.229546 20.1611 0.231706 20.1325 0.236353 20.1001L0.442761 19.0409C0.483076 18.8229 0.553953 18.6147 0.625125 18.4056C0.66368 18.2923 0.702321 18.1788 0.736237 18.0633C0.882089 17.5254 1.13464 17.0051 1.37743 16.5052C1.47902 16.296 1.61454 16.0724 1.76778 15.8519C2.22582 15.1927 2.86432 14.6892 3.51632 14.221C3.56301 14.1918 3.62226 14.1644 3.68744 14.1342C3.77946 14.0916 3.8833 14.0436 3.98031 13.9773C4.50869 13.616 6.21391 13.402 6.64963 13.606C6.91272 13.7442 7.34996 14.0255 7.77232 14.2973C8.23482 14.5949 8.67948 14.881 8.85813 14.9551C10.2488 15.5323 11.0776 15.7607 12.7486 15.5779C13.2419 15.524 14.373 15.1113 14.8314 14.8655L16.1934 14.0008C16.404 13.8391 16.6375 13.7083 16.8815 13.6024C17.2756 13.4314 18.2848 13.5576 18.7391 13.6823C18.7521 13.6862 18.7673 13.6907 18.7843 13.6958C18.9736 13.752 19.3863 13.8745 19.5134 13.9648C19.6214 14.0414 19.7374 14.0994 19.8695 14.1655C20.1415 14.3016 20.4816 14.4718 20.96 14.9082L21.7145 15.8085C21.9725 16.1401 22.1679 16.5567 22.3528 16.9507C22.383 17.0151 22.4129 17.0788 22.4427 17.1415C22.4689 17.1974 22.4919 17.2649 22.5158 17.3347C22.5342 17.3889 22.5532 17.4444 22.5745 17.4971C22.7013 17.8111 22.7152 17.8585 22.7827 18.0886C22.7986 18.143 22.8176 18.2077 22.8418 18.2885L22.9404 18.5942C22.9804 18.7181 23.0414 18.837 23.0579 18.9662C23.0606 18.9879 23.0637 19.0121 23.0684 19.0403C23.0763 19.0883 23.0829 19.1068 23.0895 19.1256C23.0971 19.1469 23.1048 19.1686 23.1148 19.2333C23.1512 19.4482 23.1872 19.6441 23.2215 19.8302C23.3365 20.4551 23.4312 20.9698 23.4495 21.7238C23.4515 21.8086 23.46 21.8719 23.4686 21.9369C23.478 22.0069 23.4876 22.0789 23.4898 22.1819L23.4901 22.1954C23.5 22.6623 23.5237 23.7685 23.4264 24.1742L23.2178 24.9637C23.2151 24.9728 23.2125 24.9817 23.2099 24.9904C23.1521 25.186 23.1259 25.2745 22.9931 25.4714L22.4193 26.2861C22.2796 26.4845 22.1177 26.6661 21.9367 26.8275C21.3441 27.3423 20.5733 27.5862 19.822 27.8138L19.5169 27.9062C19.4676 27.9147 19.4076 27.9137 19.3485 27.9128ZM5.04594 26.3494H18.4615C19.1883 26.3494 20.1857 26.1786 20.7491 25.702L21.2276 25.2252C21.2525 25.2005 21.274 25.1726 21.2917 25.1423C21.5493 24.7022 21.7453 24.3674 21.7903 23.8045C21.7952 23.7421 21.8037 23.7013 21.8119 23.6612C21.8229 23.6077 21.8337 23.5555 21.8356 23.4548C21.8467 22.8739 21.8183 22.2888 21.7902 21.7113C21.7855 21.6153 21.7809 21.5196 21.7764 21.4241C21.7717 21.3224 21.7604 21.2547 21.7496 21.1896C21.7421 21.1443 21.7348 21.1003 21.73 21.0469C21.7046 20.764 21.637 20.2045 21.575 19.9809C21.5398 19.8539 21.5195 19.7292 21.499 19.6031C21.4815 19.4953 21.4638 19.3865 21.4365 19.2743C21.3365 18.8637 21.0807 18.0558 20.9102 17.718L20.8999 17.6975C20.5267 16.9581 20.4464 16.799 20.0785 16.3888C19.9136 16.2049 19.7293 16.0393 19.534 15.8881C19.3323 15.732 19.1215 15.5851 18.8887 15.4809C18.8168 15.4487 18.741 15.4183 18.6543 15.3881C18.2747 15.2558 17.991 15.1961 17.5631 15.1861C17.3988 15.1823 17.3409 15.2052 17.2303 15.2756C17.0725 15.37 16.9196 15.4622 16.7708 15.5519C15.0457 16.5923 13.8643 17.3047 11.7401 17.298C11.006 17.2957 10.4801 17.229 9.8461 17.0567L8.0407 16.3633C7.88793 16.3007 7.51418 16.058 7.13134 15.8095C6.67422 15.5127 6.20414 15.2075 6.08187 15.1903C5.59768 15.1221 4.9548 15.3214 4.52897 15.5255L3.93759 15.8841C3.8299 15.9573 3.67733 16.1312 3.55157 16.2745C3.48865 16.3461 3.43244 16.4102 3.39191 16.4502C3.23811 16.6019 3.21645 16.6396 3.16908 16.7221C3.1408 16.7714 3.10336 16.8366 3.02319 16.9515C2.565 17.6778 2.12078 18.8437 2.0036 19.6658L1.73195 21.4773C1.72145 21.5902 1.72258 21.7116 1.72371 21.8323C1.72522 21.9945 1.72673 22.1553 1.69991 22.2916C1.63459 22.6235 1.64957 23.6624 1.7559 24.0467L1.89713 24.5275C1.96071 24.7387 2.30949 25.2719 2.46071 25.4294L2.92126 25.8105C3.48175 26.2213 4.31731 26.3494 5.04594 26.3494Z"/>
</mask>
<path fill-rule="evenodd" clip-rule="evenodd" d="M18.3509 6.74071C18.3509 10.4635 15.3159 13.4814 11.5721 13.4814C7.82837 13.4814 4.79341 10.4635 4.79341 6.74071C4.79341 3.01793 7.82837 0 11.5721 0C15.3159 0 18.3509 3.01793 18.3509 6.74071ZM16.7358 6.74071C16.7358 9.57652 14.424 11.8754 11.5721 11.8754C8.72033 11.8754 6.40847 9.57654 6.40847 6.74071C6.40847 3.90489 8.72032 1.606 11.5721 1.606C14.424 1.606 16.7358 3.90488 16.7358 6.74071Z" stroke="white" stroke-width="4" mask="url(#path-1-inside-1)"/>
<path fill-rule="evenodd" clip-rule="evenodd" d="M19.3485 27.9128C19.1798 27.9101 18.9614 28 18.7928 28H4.45162C4.43254 28 4.41707 27.9845 4.41706 27.9655C4.41705 27.9469 4.40223 27.9317 4.38369 27.9308C3.62705 27.8969 3.04527 27.7051 2.44138 27.4071C2.31644 27.3455 2.19997 27.2682 2.09135 27.1809L1.21614 26.4779C1.02896 26.3071 0.822679 25.9781 0.668529 25.7322C0.628234 25.668 0.591501 25.6094 0.559603 25.5608C0.361884 25.2596 0.250575 24.8962 0.169551 24.5408C0.157643 24.4885 0.146409 24.4202 0.134765 24.3493C0.120826 24.2645 0.106301 24.1761 0.0893325 24.1074C0.0103766 23.7882 -0.0366559 22.5304 0.0362431 22.1795C0.065665 22.0379 0.0634699 21.8791 0.0612555 21.7189C0.0589365 21.5512 0.0565964 21.3819 0.0905278 21.2293C0.119559 21.0987 0.131523 20.9541 0.143686 20.8071C0.157203 20.6438 0.170965 20.4774 0.208673 20.3242C0.221037 20.274 0.224161 20.2325 0.227453 20.1889C0.229546 20.1611 0.231706 20.1325 0.236353 20.1001L0.442761 19.0409C0.483076 18.8229 0.553953 18.6147 0.625125 18.4056C0.66368 18.2923 0.702321 18.1788 0.736237 18.0633C0.882089 17.5254 1.13464 17.0051 1.37743 16.5052C1.47902 16.296 1.61454 16.0724 1.76778 15.8519C2.22582 15.1927 2.86432 14.6892 3.51632 14.221C3.56301 14.1918 3.62226 14.1644 3.68744 14.1342C3.77946 14.0916 3.8833 14.0436 3.98031 13.9773C4.50869 13.616 6.21391 13.402 6.64963 13.606C6.91272 13.7442 7.34996 14.0255 7.77232 14.2973C8.23482 14.5949 8.67948 14.881 8.85813 14.9551C10.2488 15.5323 11.0776 15.7607 12.7486 15.5779C13.2419 15.524 14.373 15.1113 14.8314 14.8655L16.1934 14.0008C16.404 13.8391 16.6375 13.7083 16.8815 13.6024C17.2756 13.4314 18.2848 13.5576 18.7391 13.6823C18.7521 13.6862 18.7673 13.6907 18.7843 13.6958C18.9736 13.752 19.3863 13.8745 19.5134 13.9648C19.6214 14.0414 19.7374 14.0994 19.8695 14.1655C20.1415 14.3016 20.4816 14.4718 20.96 14.9082L21.7145 15.8085C21.9725 16.1401 22.1679 16.5567 22.3528 16.9507C22.383 17.0151 22.4129 17.0788 22.4427 17.1415C22.4689 17.1974 22.4919 17.2649 22.5158 17.3347C22.5342 17.3889 22.5532 17.4444 22.5745 17.4971C22.7013 17.8111 22.7152 17.8585 22.7827 18.0886C22.7986 18.143 22.8176 18.2077 22.8418 18.2885L22.9404 18.5942C22.9804 18.7181 23.0414 18.837 23.0579 18.9662C23.0606 18.9879 23.0637 19.0121 23.0684 19.0403C23.0763 19.0883 23.0829 19.1068 23.0895 19.1256C23.0971 19.1469 23.1048 19.1686 23.1148 19.2333C23.1512 19.4482 23.1872 19.6441 23.2215 19.8302C23.3365 20.4551 23.4312 20.9698 23.4495 21.7238C23.4515 21.8086 23.46 21.8719 23.4686 21.9369C23.478 22.0069 23.4876 22.0789 23.4898 22.1819L23.4901 22.1954C23.5 22.6623 23.5237 23.7685 23.4264 24.1742L23.2178 24.9637C23.2151 24.9728 23.2125 24.9817 23.2099 24.9904C23.1521 25.186 23.1259 25.2745 22.9931 25.4714L22.4193 26.2861C22.2796 26.4845 22.1177 26.6661 21.9367 26.8275C21.3441 27.3423 20.5733 27.5862 19.822 27.8138L19.5169 27.9062C19.4676 27.9147 19.4076 27.9137 19.3485 27.9128ZM5.04594 26.3494H18.4615C19.1883 26.3494 20.1857 26.1786 20.7491 25.702L21.2276 25.2252C21.2525 25.2005 21.274 25.1726 21.2917 25.1423C21.5493 24.7022 21.7453 24.3674 21.7903 23.8045C21.7952 23.7421 21.8037 23.7013 21.8119 23.6612C21.8229 23.6077 21.8337 23.5555 21.8356 23.4548C21.8467 22.8739 21.8183 22.2888 21.7902 21.7113C21.7855 21.6153 21.7809 21.5196 21.7764 21.4241C21.7717 21.3224 21.7604 21.2547 21.7496 21.1896C21.7421 21.1443 21.7348 21.1003 21.73 21.0469C21.7046 20.764 21.637 20.2045 21.575 19.9809C21.5398 19.8539 21.5195 19.7292 21.499 19.6031C21.4815 19.4953 21.4638 19.3865 21.4365 19.2743C21.3365 18.8637 21.0807 18.0558 20.9102 17.718L20.8999 17.6975C20.5267 16.9581 20.4464 16.799 20.0785 16.3888C19.9136 16.2049 19.7293 16.0393 19.534 15.8881C19.3323 15.732 19.1215 15.5851 18.8887 15.4809C18.8168 15.4487 18.741 15.4183 18.6543 15.3881C18.2747 15.2558 17.991 15.1961 17.5631 15.1861C17.3988 15.1823 17.3409 15.2052 17.2303 15.2756C17.0725 15.37 16.9196 15.4622 16.7708 15.5519C15.0457 16.5923 13.8643 17.3047 11.7401 17.298C11.006 17.2957 10.4801 17.229 9.8461 17.0567L8.0407 16.3633C7.88793 16.3007 7.51418 16.058 7.13134 15.8095C6.67422 15.5127 6.20414 15.2075 6.08187 15.1903C5.59768 15.1221 4.9548 15.3214 4.52897 15.5255L3.93759 15.8841C3.8299 15.9573 3.67733 16.1312 3.55157 16.2745C3.48865 16.3461 3.43244 16.4102 3.39191 16.4502C3.23811 16.6019 3.21645 16.6396 3.16908 16.7221C3.1408 16.7714 3.10336 16.8366 3.02319 16.9515C2.565 17.6778 2.12078 18.8437 2.0036 19.6658L1.73195 21.4773C1.72145 21.5902 1.72258 21.7116 1.72371 21.8323C1.72522 21.9945 1.72673 22.1553 1.69991 22.2916C1.63459 22.6235 1.64957 23.6624 1.7559 24.0467L1.89713 24.5275C1.96071 24.7387 2.30949 25.2719 2.46071 25.4294L2.92126 25.8105C3.48175 26.2213 4.31731 26.3494 5.04594 26.3494Z" stroke="white" stroke-width="4" mask="url(#path-1-inside-1)"/>
</svg>
